<svg xmlns="http://www.w3.org/2000/svg" viewBox="0 0 500 500"><g id="freepik--Window--inject-6"><g id="freepik--window--inject-6"><polygon points="364.21 131.81 468.86 192.22 468.86 97.33 364.21 36.93 364.21 131.81" style="fill:#fff"></polygon><polygon points="471.12 193.53 468.86 194.88 361.96 133.16 364.21 131.81 471.12 193.53" style="fill:#fafafa"></polygon><path d="M357.7,135.62l115.42,66.64V94.87L357.7,28.23ZM362,35.6l106.9,61.73v97.55L362,133.16Z" style="fill:#f0f0f0"></path><polygon points="361.96 133.16 364.21 131.81 364.21 36.93 361.96 35.6 361.96 133.16" style="fill:#e0e0e0"></polygon><polygon points="357.69 28.23 359.99 26.91 475.41 93.55 473.12 94.87 357.69 28.23" style="fill:#fafafa"></polygon><polygon points="475.41 93.55 473.12 94.87 473.12 202.26 475.41 200.94 475.41 93.55" style="fill:#e0e0e0"></polygon><polygon points="466.98 122.04 466.98 124.69 361.96 63.97 364.21 62.62 466.98 122.04" style="fill:#fafafa"></polygon><polygon points="419.04 68.57 416.75 67.25 416.75 164.81 419.04 163.5 419.04 68.57" style="fill:#e0e0e0"></polygon><polygon points="412.49 64.8 416.75 67.25 416.75 164.81 412.49 162.34 412.49 64.8" style="fill:#f0f0f0"></polygon><polygon points="361.96 63.97 361.96 68.88 468.9 130.88 468.9 125.97 361.96 63.97" style="fill:#f0f0f0"></polygon><polygon points="416.75 95.73 419.04 94.32 468.86 123.12 468.86 125.97 416.75 95.73" style="fill:#fafafa"></polygon></g></g><g id="freepik--Pictures--inject-6"><g id="freepik--Picture--inject-6"><g id="freepik--Frame--inject-6"><polygon points="30.69 129.5 32.59 130.63 71.62 108.1 69.72 106.96 30.69 129.5" style="fill:#fafafa"></polygon><polygon points="69.72 106.96 32.59 128.39 32.59 89.52 69.72 68.1 69.72 106.96" style="fill:#fff"></polygon><path d="M75.21,60.77,29,87.44v49.4l46.2-26.67ZM71.62,108.1l-39,22.53V89.52L71.62,67Z" style="fill:#f0f0f0"></path><polygon points="71.62 108.1 69.72 106.96 69.72 68.1 71.62 66.98 71.62 108.1" style="fill:#e0e0e0"></polygon><polygon points="75.21 60.77 73.28 59.66 27.07 86.34 29 87.44 75.21 60.77" style="fill:#fafafa"></polygon><polygon points="27.07 86.34 29 87.44 29 136.84 27.07 135.74 27.07 86.34" style="fill:#e0e0e0"></polygon></g><g id="freepik--Land--inject-6"><polygon points="68.27 105.8 34.04 125.56 34.04 115.68 42.6 95.92 47.93 100.86 46.01 109.14 57.83 83.87 68.27 95.92 68.27 105.8" style="fill:#f0f0f0"></polygon><path d="M47.61,86.38a5.59,5.59,0,0,0-2.53,4.38c0,1.62,1.13,2.27,2.53,1.47a5.59,5.59,0,0,0,2.53-4.39C50.14,86.23,49,85.57,47.61,86.38Z" style="fill:#f0f0f0"></path></g></g><g id="freepik--picture--inject-6"><g id="freepik--frame--inject-6"><polygon points="95.54 92.06 97.44 93.19 136.47 70.66 134.56 69.52 95.54 92.06" style="fill:#fafafa"></polygon><polygon points="134.56 69.52 97.44 90.95 97.44 52.08 134.56 30.66 134.56 69.52" style="fill:#fff"></polygon><path d="M140.06,23.33,93.85,50V99.4l46.21-26.67Zm-3.59,47.33-39,22.53V52.08l39-22.53Z" style="fill:#f0f0f0"></path><polygon points="136.47 70.66 134.56 69.52 134.56 30.66 136.47 29.55 136.47 70.66" style="fill:#e0e0e0"></polygon><polygon points="140.06 23.33 138.12 22.22 91.92 48.9 93.85 50.01 140.06 23.33" style="fill:#fafafa"></polygon><polygon points="91.92 48.9 93.85 50.01 93.85 99.41 91.92 98.3 91.92 48.9" style="fill:#e0e0e0"></polygon></g><g id="freepik--land--inject-6"><polygon points="133.12 68.36 98.89 88.12 98.89 78.24 107.45 58.48 112.78 63.42 110.86 71.7 122.68 46.43 133.12 58.48 133.12 68.36" style="fill:#f0f0f0"></polygon><path d="M112.46,48.94a5.6,5.6,0,0,0-2.54,4.39c0,1.61,1.14,2.26,2.54,1.46A5.62,5.62,0,0,0,115,50.4C115,48.79,113.85,48.13,112.46,48.94Z" style="fill:#f0f0f0"></path></g></g></g><g id="freepik--books-2--inject-6"><g id="freepik--Book--inject-6"><path d="M81.54,127.52v5s2-1.78,2.06-3.05S81.54,127.52,81.54,127.52Z"></path><path d="M85.42,126.31A5.28,5.28,0,0,1,81.53,133c-5.48,1.73-8.93,0-9.76,1.54s26.05,17,26.05,17l-5.11-22.23Z" style="fill:#0096FF"></path><path d="M87.74,357.92l115.6-66.72V66.69c0-3.2-1.76-4.79-3.93-3.53l-3.92,2.27L87.74,127.62l.1.94Z" style="fill:#0096FF"></path><path d="M87.74,357.92l115.6-66.72V66.69c0-3.2-1.76-4.79-3.93-3.53l-3.92,2.27L87.74,127.62l.1.94Z" style="fill:#fff;opacity:0.2"></path><path d="M101.05,151.9l5.66-6.36L87.93,134.7c-4.37,3.29-7.72,5.05-11.63,3.41Z" style="fill:#455a64"></path><path d="M103.13,144.05a.31.31,0,0,1-.27-.11,1.59,1.59,0,0,1-.26-1v-.31l-14-8.05a5.45,5.45,0,0,0,1.3-3L196.37,70.1a6.95,6.95,0,0,1,6.2,0l17.62,10.16-107.3,61.41a13.11,13.11,0,0,0-2.53-.25,8.87,8.87,0,0,0-5.57,1.75A3.09,3.09,0,0,1,103.13,144.05Z" style="fill:#fafafa"></path><path d="M199.47,69.87h0a6,6,0,0,1,2.86.66l16.85,9.73L112.8,141.15a12.64,12.64,0,0,0-2.44-.23,9.21,9.21,0,0,0-5.88,1.86,3.25,3.25,0,0,1-1.29.76,1.6,1.6,0,0,1-.09-.61l0-.62-.53-.3-13.23-7.63a6,6,0,0,0,1.08-2.55l106.17-61.3a5.91,5.91,0,0,1,2.85-.66m0-1a6.78,6.78,0,0,0-3.35.8L89.39,131.28s.53.76-1.46,3.42l14.17,8.17s-.09,1.68,1,1.68a3.55,3.55,0,0,0,2-1,8.29,8.29,0,0,1,5.25-1.64,11.79,11.79,0,0,1,2.61.28L221.19,80.26,202.82,69.67a6.75,6.75,0,0,0-3.35-.8Z" style="fill:#e0e0e0"></path><path d="M103.13,150.57c1.11-.63,1.58-1.37,1.06-1.67l-.91-.52c-1-.58-.07-2.08,2.11-3.34s4.76-1.82,5.76-1.24l.91.52c.52.3,2.42-.32,4.26-1.38l-.66,230.72L113,375.2a2.58,2.58,0,0,1-1.58-.14l-.9-.53c-1-.58-3.58,0-5.76,1.22s-3.11,2.76-2.11,3.34l.91.52c.52.3,0,1-1,1.68Z" style="fill:#0096FF"></path><path d="M103.13,150.57c1.11-.63,1.58-1.37,1.06-1.67l-.91-.52c-1-.58-.07-2.08,2.11-3.34s4.76-1.82,5.76-1.24l.91.52c.52.3,2.42-.32,4.26-1.38l-.66,230.72L113,375.2a2.58,2.58,0,0,1-1.58-.14l-.9-.53c-1-.58-3.58,0-5.76,1.22s-3.11,2.76-2.11,3.34l.91.52c.52.3,0,1-1,1.68Z" style="fill:#fff;opacity:0.35000000000000003"></path><path d="M113,374.89v.31l2.68-1.55L230.9,307.11V82.59c0-3.2-1.76-4.79-3.93-3.53L223,81.33,113,142.2Z" style="fill:#0096FF"></path><path d="M113,374.89v.31l2.68-1.55L230.9,307.11V82.59c0-3.2-1.76-4.79-3.93-3.53L223,81.33,113,142.2Z" style="fill:#fff;opacity:0.5"></path><path d="M104.39,380.15V149.22l-7.15,2.88V382.39a6.69,6.69,0,0,0,4-.39Z" style="fill:#0096FF"></path><path d="M104.39,380.15V149.22l-7.15,2.88V382.39a6.69,6.69,0,0,0,4-.39Z" style="fill:#fff;opacity:0.5"></path><path d="M68.89,365.24a2.66,2.66,0,0,0,0,.39.61.61,0,0,0,.06.25,2,2,0,0,0,.23.54.84.84,0,0,0,.13.27,4.56,4.56,0,0,0,.61.87,10.69,10.69,0,0,0,.8.87c.32.29.65.57,1,.87a4.36,4.36,0,0,0,.63.48l.53.37c.4.28.82.54,1.28.81l14.66,8.46a23.8,23.8,0,0,0,8.38,3V152.1L68.87,134.89l0,230.29Z" style="fill:#0096FF"></path><g style="opacity:0.8"><path d="M68.89,365.24a2.66,2.66,0,0,0,0,.39.61.61,0,0,0,.06.25,2,2,0,0,0,.23.54.84.84,0,0,0,.13.27,4.56,4.56,0,0,0,.61.87,10.69,10.69,0,0,0,.8.87c.32.29.65.57,1,.87a4.36,4.36,0,0,0,.63.48l.53.37c.4.28.82.54,1.28.81l14.66,8.46a23.8,23.8,0,0,0,8.38,3V152.1L68.87,134.89l0,230.29Z" style="fill:#fff"></path></g><path d="M97.25,168.65v24.08c-9.32-1.84-23.79-10.25-28.38-16.38V152.28C75.29,159.55,87.93,166.43,97.25,168.65Z" style="fill:#fafafa"></path><path d="M97.25,330v24.08c-9.32-1.84-23.79-10.25-28.38-16.38V313.63C75.29,320.9,87.93,327.78,97.25,330Z" style="fill:#fafafa"></path><path d="M90.91,150.32,92.85,147c3.58,2.07,5.12,1.52,6.22,1.4a5.07,5.07,0,0,1,.68-3.27,10,10,0,0,1,3.72-3.42,14.74,14.74,0,0,1,5.63-1.91l.42,0a6.42,6.42,0,0,1,3.45.65l102.22-59,3.47-2,4.43-2.56a2.34,2.34,0,0,1,2.4-.17l3.93,2.26a2.41,2.41,0,0,0-2.46.15l-.06,0-11.72,6.78-98.85,57.07c-1.84,1.06-3.75,1.7-4.27,1.4l-.91-.53a3.23,3.23,0,0,0-2.05-.13,11.07,11.07,0,0,0-3.7,1.35c-2.19,1.26-3.12,2.76-2.11,3.34l.9.52c.52.3,0,1-1,1.67l-2,1.13C99,152.94,95.54,153,90.91,150.32Z" style="fill:#0096FF"></path><path d="M90.91,150.32,92.85,147c3.58,2.07,5.12,1.52,6.22,1.4a5.07,5.07,0,0,1,.68-3.27,10,10,0,0,1,3.72-3.42,14.74,14.74,0,0,1,5.63-1.91l.42,0a6.42,6.42,0,0,1,3.45.65l102.22-59,3.47-2,4.43-2.56a2.34,2.34,0,0,1,2.4-.17l3.93,2.26a2.41,2.41,0,0,0-2.46.15l-.06,0-11.72,6.78-98.85,57.07c-1.84,1.06-3.75,1.7-4.27,1.4l-.91-.53a3.23,3.23,0,0,0-2.05-.13,11.07,11.07,0,0,0-3.7,1.35c-2.19,1.26-3.12,2.76-2.11,3.34l.9.52c.52.3,0,1-1,1.67l-2,1.13C99,152.94,95.54,153,90.91,150.32Z" style="fill:#fff;opacity:0.7000000000000001"></path><path d="M92.85,147,76.13,137.3c-.35-.2-.69-.42-1-.63l-.79-.57a.2.2,0,0,1-.07-.06c2.84,1.24,6.69.06,9.23-1.42a9.84,9.84,0,0,0,3.63-3.36,5.18,5.18,0,0,0,.63-3.64l.34-.2c.23-.14.46-.25.69-.39L187.63,70l5.66-3.28c.53-.3,1.08-.63,1.64-.93L199.72,63a2.25,2.25,0,0,1,2.14,0l-1.08-.62-2.84-1.65a2.18,2.18,0,0,0-2,0s0,0-.05,0c-.57.32-1.15.68-1.77,1l-1.1.64c-.65.39-1.31.75-1.91,1.09-.43.24-.82.46-1.17.68s-.6.33-.84.48l-1.46.83-78.51,45.35L84.05,125.29c-1.79,1-2.84,2.1-2.42,2.45l.15.11.88.51c1.09.63.21,2.15-2,3.4s-3.89,1.28-5,.71l-1.07-.62a1.81,1.81,0,0,0-1.57-.23c-.16.08-.36.21-.57.33s-.77.45-1.24.72-1,.56-1.54.88a1.55,1.55,0,0,0-.82,1.78.47.47,0,0,0,0,.25,1.83,1.83,0,0,0,.23.54h0a.73.73,0,0,0,.11.26,4.56,4.56,0,0,0,.61.87,10.69,10.69,0,0,0,.8.87c.32.29.65.57,1,.87a4.45,4.45,0,0,0,.64.48l.52.37c.4.28.82.55,1.28.81l16.71,9.66Z" style="fill:#0096FF"></path><path d="M92.85,147,76.13,137.3c-.35-.2-.69-.42-1-.63l-.79-.57a.2.2,0,0,1-.07-.06c2.84,1.24,6.69.06,9.23-1.42a9.84,9.84,0,0,0,3.63-3.36,5.18,5.18,0,0,0,.63-3.64l.34-.2c.23-.14.46-.25.69-.39L187.63,70l5.66-3.28c.53-.3,1.08-.63,1.64-.93L199.72,63a2.25,2.25,0,0,1,2.14,0l-1.08-.62-2.84-1.65a2.18,2.18,0,0,0-2,0s0,0-.05,0c-.57.32-1.15.68-1.77,1l-1.1.64c-.65.39-1.31.75-1.91,1.09-.43.24-.82.46-1.17.68s-.6.33-.84.48l-1.46.83-78.51,45.35L84.05,125.29c-1.79,1-2.84,2.1-2.42,2.45l.15.11.88.51c1.09.63.21,2.15-2,3.4s-3.89,1.28-5,.71l-1.07-.62a1.81,1.81,0,0,0-1.57-.23c-.16.08-.36.21-.57.33s-.77.45-1.24.72-1,.56-1.54.88a1.55,1.55,0,0,0-.82,1.78.47.47,0,0,0,0,.25,1.83,1.83,0,0,0,.23.54h0a.73.73,0,0,0,.11.26,4.56,4.56,0,0,0,.61.87,10.69,10.69,0,0,0,.8.87c.32.29.65.57,1,.87a4.45,4.45,0,0,0,.64.48l.52.37c.4.28.82.55,1.28.81l16.71,9.66Z" style="fill:#fff;opacity:0.7000000000000001"></path></g><g id="freepik--book--inject-6"><path d="M119.38,148.74v5s1.94-1.77,2-3S119.38,148.74,119.38,148.74Z"></path><path d="M123.25,147.52a5.27,5.27,0,0,1-3.88,6.72c-5.49,1.73-8.94,0-9.76,1.54s26,17,26,17l-5.1-22.23Z" style="fill:#0096FF"></path><path d="M123.25,147.52a5.27,5.27,0,0,1-3.88,6.72c-5.49,1.73-8.94,0-9.76,1.54s26,17,26,17l-5.1-22.23Z" style="opacity:0.30000000000000004"></path><path d="M125.57,379.14l115.6-66.73V87.91c0-3.21-1.75-4.79-3.92-3.54l-3.92,2.28L125.57,148.83l.1.95Z" style="fill:#0096FF"></path><path d="M138.88,173.11l5.67-6.36-18.78-10.84c-4.37,3.3-7.72,5.06-11.63,3.41Z" style="fill:#455a64"></path><path d="M141,165.26a.35.35,0,0,1-.28-.1,1.79,1.79,0,0,1-.26-1l0-.3-13.95-8.05a5.47,5.47,0,0,0,1.3-3L234.21,91.31a6.95,6.95,0,0,1,6.2,0L258,101.47l-107.3,61.42a12,12,0,0,0-2.52-.26,8.85,8.85,0,0,0-5.57,1.75C141.68,165.15,141.18,165.26,141,165.26Z" style="fill:#fafafa"></path><path d="M237.31,91.08h0a5.8,5.8,0,0,1,2.85.67L257,101.47,150.64,162.36a12.73,12.73,0,0,0-2.44-.23,9.25,9.25,0,0,0-5.89,1.87,3.33,3.33,0,0,1-1.29.76,1.93,1.93,0,0,1-.09-.62l0-.61-.54-.31-13.22-7.63a6.09,6.09,0,0,0,1.08-2.55L234.45,91.75a5.87,5.87,0,0,1,2.86-.67m0-1a6.93,6.93,0,0,0-3.36.8L127.23,152.5s.52.75-1.46,3.41l14.16,8.18s-.09,1.67,1,1.67a3.5,3.5,0,0,0,2-1,8.33,8.33,0,0,1,5.26-1.64,11.26,11.26,0,0,1,2.6.29L259,101.48l-18.37-10.6a6.89,6.89,0,0,0-3.35-.8Z" style="fill:#e0e0e0"></path><path d="M141,171.78c1.1-.63,1.57-1.37,1.05-1.67l-.9-.52c-1-.58-.08-2.08,2.11-3.34S148,164.43,149,165l.91.53c.52.3,2.42-.32,4.26-1.38l-.66,230.71-2.7,1.55a2.47,2.47,0,0,1-1.57-.15l-.91-.52c-1-.58-3.58,0-5.75,1.21s-3.12,2.76-2.11,3.34l.91.53c.52.3,0,1-1.06,1.67Z" style="fill:#0096FF"></path><path d="M141,171.78c1.1-.63,1.57-1.37,1.05-1.67l-.9-.52c-1-.58-.08-2.08,2.11-3.34S148,164.43,149,165l.91.53c.52.3,2.42-.32,4.26-1.38l-.66,230.71-2.7,1.55a2.47,2.47,0,0,1-1.57-.15l-.91-.52c-1-.58-3.58,0-5.75,1.21s-3.12,2.76-2.11,3.34l.91.53c.52.3,0,1-1.06,1.67Z" style="fill:#fff;opacity:0.25"></path><path d="M150.8,396.1v.32l2.69-1.55,115.25-66.54,0-224.52c0-3.21-1.75-4.79-3.92-3.54l-3.92,2.28L150.8,163.42Z" style="fill:#0096FF"></path><path d="M150.8,396.1v.32l2.69-1.55,115.25-66.54,0-224.52c0-3.21-1.75-4.79-3.92-3.54l-3.92,2.28L150.8,163.42Z" style="fill:#fff;opacity:0.4"></path><path d="M142.23,401.37V170.43l-7.15,2.89V403.61a6.7,6.7,0,0,0,3.95-.4Z" style="fill:#0096FF"></path><path d="M142.23,401.37V170.43l-7.15,2.89V403.61a6.7,6.7,0,0,0,3.95-.4Z" style="fill:#fff;opacity:0.4"></path><path d="M106.72,386.46a2.58,2.58,0,0,0,0,.38.57.57,0,0,0,.06.25,1.81,1.81,0,0,0,.22.54,1.34,1.34,0,0,0,.13.27,5.13,5.13,0,0,0,.62.87,8.08,8.08,0,0,0,.8.87c.32.29.65.57,1,.87a5.09,5.09,0,0,0,.64.48l.53.37c.39.28.82.55,1.27.81l14.67,8.46a23.79,23.79,0,0,0,8.37,3V173.32L106.71,156.1V386.46Z" style="fill:#0096FF"></path><g style="opacity:0.7000000000000001"><path d="M106.72,386.46a2.58,2.58,0,0,0,0,.38.57.57,0,0,0,.06.25,1.81,1.81,0,0,0,.22.54,1.34,1.34,0,0,0,.13.27,5.13,5.13,0,0,0,.62.87,8.08,8.08,0,0,0,.8.87c.32.29.65.57,1,.87a5.09,5.09,0,0,0,.64.48l.53.37c.39.28.82.55,1.27.81l14.67,8.46a23.79,23.79,0,0,0,8.37,3V173.32L106.71,156.1V386.46Z" style="fill:#fff"></path></g><path d="M135.08,189.87v24.07c-9.31-1.83-23.79-10.24-28.37-16.37V173.49C113.13,180.76,125.77,187.64,135.08,189.87Z" style="fill:#fafafa"></path><path d="M135.08,351.21v24.08c-9.31-1.84-23.79-10.24-28.37-16.37V334.84C113.13,342.11,125.77,349,135.08,351.21Z" style="fill:#fafafa"></path><path d="M128.75,171.53l1.93-3.35c3.59,2.07,5.12,1.53,6.22,1.4a5.14,5.14,0,0,1,.68-3.27,10.12,10.12,0,0,1,3.72-3.42,15,15,0,0,1,5.64-1.91c.14,0,.29,0,.42,0a6.33,6.33,0,0,1,3.45.65l102.21-59,3.48-2L260.93,98a2.32,2.32,0,0,1,2.4-.18l3.92,2.26a2.39,2.39,0,0,0-2.45.15l-.06,0L253,107.08l-98.86,57.07c-1.84,1.06-3.75,1.7-4.27,1.4L149,165a3.15,3.15,0,0,0-2.05-.14,11.11,11.11,0,0,0-3.71,1.35c-2.18,1.27-3.11,2.76-2.1,3.35l.9.52c.52.3.05,1-1.05,1.67l-2,1.12C136.85,174.16,133.37,174.2,128.75,171.53Z" style="fill:#0096FF"></path><path d="M128.75,171.53l1.93-3.35c3.59,2.07,5.12,1.53,6.22,1.4a5.14,5.14,0,0,1,.68-3.27,10.12,10.12,0,0,1,3.72-3.42,15,15,0,0,1,5.64-1.91c.14,0,.29,0,.42,0a6.33,6.33,0,0,1,3.45.65l102.21-59,3.48-2L260.93,98a2.32,2.32,0,0,1,2.4-.18l3.92,2.26a2.39,2.39,0,0,0-2.45.15l-.06,0L253,107.08l-98.86,57.07c-1.84,1.06-3.75,1.7-4.27,1.4L149,165a3.15,3.15,0,0,0-2.05-.14,11.11,11.11,0,0,0-3.71,1.35c-2.18,1.27-3.11,2.76-2.1,3.35l.9.52c.52.3.05,1-1.05,1.67l-2,1.12C136.85,174.16,133.37,174.2,128.75,171.53Z" style="fill:#fff;opacity:0.6000000000000001"></path><path d="M130.68,168.18,114,158.52l-1-.64-.79-.56a.16.16,0,0,1-.07-.07c2.83,1.24,6.69.06,9.22-1.42a9.71,9.71,0,0,0,3.64-3.36,5.18,5.18,0,0,0,.62-3.64l.34-.2.69-.39,98.86-57.06,5.67-3.28c.53-.29,1.08-.63,1.64-.93l4.78-2.76a2.25,2.25,0,0,1,2.14,0l-1.07-.62L235.77,82a2.16,2.16,0,0,0-2,0s0,0-.05,0c-.57.33-1.15.68-1.77,1l-1.11.63c-.65.39-1.3.75-1.9,1.09-.43.25-.83.47-1.18.69s-.59.33-.83.48l-1.47.83L147,132l-25.07,14.47c-1.8,1-2.84,2.09-2.42,2.44a.65.65,0,0,0,.15.11l.88.51c1.09.63.21,2.15-2,3.4s-3.89,1.29-5,.71l-1.08-.62a1.78,1.78,0,0,0-1.56-.23l-.58.34-1.24.71-1.53.88a1.57,1.57,0,0,0-.83,1.78.54.54,0,0,0,.06.25,2.11,2.11,0,0,0,.22.54h0a1.53,1.53,0,0,0,.11.27,5.48,5.48,0,0,0,.62.86,8.08,8.08,0,0,0,.8.87c.32.3.65.57,1,.87a5.09,5.09,0,0,0,.64.48l.53.38c.39.27.82.54,1.27.8l16.72,9.66Z" style="fill:#0096FF"></path><path d="M130.68,168.18,114,158.52l-1-.64-.79-.56a.16.16,0,0,1-.07-.07c2.83,1.24,6.69.06,9.22-1.42a9.71,9.71,0,0,0,3.64-3.36,5.18,5.18,0,0,0,.62-3.64l.34-.2.69-.39,98.86-57.06,5.67-3.28c.53-.29,1.08-.63,1.64-.93l4.78-2.76a2.25,2.25,0,0,1,2.14,0l-1.07-.62L235.77,82a2.16,2.16,0,0,0-2,0s0,0-.05,0c-.57.33-1.15.68-1.77,1l-1.11.63c-.65.39-1.3.75-1.9,1.09-.43.25-.83.47-1.18.69s-.59.33-.83.48l-1.47.83L147,132l-25.07,14.47c-1.8,1-2.84,2.09-2.42,2.44a.65.65,0,0,0,.15.11l.88.51c1.09.63.21,2.15-2,3.4s-3.89,1.29-5,.71l-1.08-.62a1.78,1.78,0,0,0-1.56-.23l-.58.34-1.24.71-1.53.88a1.57,1.57,0,0,0-.83,1.78.54.54,0,0,0,.06.25,2.11,2.11,0,0,0,.22.54h0a1.53,1.53,0,0,0,.11.27,5.48,5.48,0,0,0,.62.86,8.08,8.08,0,0,0,.8.87c.32.3.65.57,1,.87a5.09,5.09,0,0,0,.64.48l.53.38c.39.27.82.54,1.27.8l16.72,9.66Z" style="fill:#fff;opacity:0.6000000000000001"></path></g></g><g id="freepik--Device--inject-6"><g id="freepik--device--inject-6"><path d="M325.38,325.37V60.24c0-6.11-2.17-7.23-4.86-8.78s-5.86-1.73-9.69.48L162.57,137.55a15.3,15.3,0,0,0-6.92,12V414.67c0,4.42,1.35,6,4,7.59s6.68,2.92,10.51.71l148.26-85.61A13,13,0,0,0,325.38,325.37Z" style="fill:#37474f"></path><path d="M319.15,327.61l-151,87.21,0-266.16-10.48-5.94a14.15,14.15,0,0,0-2,6.82V414.67c0,4.42,1.35,6,4,7.59s6.68,2.92,10.51.71l148.26-85.61a13.18,13.18,0,0,0,6-6.69l-.39-.22Z" style="fill:#263238"></path><path d="M318.28,58.19,169.73,144a10.75,10.75,0,0,0-4.86,8.41V415.58c0,4.74,3.37,6.68,7.47,4.3l145.94-84.25a12.23,12.23,0,0,0,5.5-9.54V61.37C323.78,57.87,321.3,56.44,318.28,58.19Z" style="fill:#455a64"></path><path d="M250.29,362.43c0,3.94-2.39,8.51-5.35,10.22s-5.34-.11-5.34-4,2.39-8.52,5.34-10.22S250.29,358.49,250.29,362.43Z" style="fill:#263238"></path><path d="M321.13,83.54V303.69a11.73,11.73,0,0,1-5.3,9.18L175.22,394.06c-2.92,1.7-5.29.33-5.29-3.05V169.22a11.85,11.85,0,0,1,3.71-8l.51-.45a8.19,8.19,0,0,1,1.07-.74L313.9,80l.52-.31C318.11,77.54,321.13,79.28,321.13,83.54Z"></path><path d="M308.14,306.93a11.75,11.75,0,0,0,5.29-9.19V80.24L175.22,160.05a8.19,8.19,0,0,0-1.07.74l-.51.45a11.85,11.85,0,0,0-3.71,8V386.73Z" style="fill:#fafafa"></path></g></g><g id="freepik--book-1--inject-6"><g id="freepik--Ebook--inject-6"><polygon points="183.08 166.8 298.72 100.02 298.72 297.76 183.08 364.54 183.08 166.8" style="fill:#0096FF"></polygon><polygon points="179.84 164.9 183.08 166.8 183.08 364.54 179.84 362.67 179.84 164.9" style="fill:#0096FF"></polygon><polygon points="179.84 164.9 183.08 166.8 183.08 364.54 179.84 362.67 179.84 164.9" style="opacity:0.30000000000000004"></polygon><polygon points="179.84 164.9 295.48 98.12 298.71 100.02 183.08 166.8 179.84 164.9" style="fill:#0096FF"></polygon><polygon points="179.84 164.9 295.48 98.12 298.71 100.02 183.08 166.8 179.84 164.9" style="fill:#fff;opacity:0.35000000000000003"></polygon><path d="M186.4,170.24l3.38,2c4.18,2.46,20.48,1.86,31.27-4.36l87.34-50.45-15.25-8.8Z" style="fill:#e0e0e0"></path><path d="M197.88,355.48c-3.61,0-6.47-.46-7.85-1.28l-3.13-1.84V171.11l2.63,1.56c1.55.91,4.52,1.41,8.35,1.41,6.49,0,16-1.52,23.42-5.79l86.59-50V299.53l-87.09,50.3c-7.22,4.17-16.57,5.65-22.92,5.65Z" style="fill:#fafafa"></path><path d="M307.39,119.16V299.25L220.55,349.4c-7.13,4.12-16.38,5.58-22.67,5.58-3.47,0-6.31-.45-7.59-1.21l-2.89-1.7V172l1.88,1.11c1.62,1,4.68,1.48,8.6,1.48,6.55,0,16.21-1.54,23.67-5.85l85.84-49.57m1-1.73-87.34,50.43c-7,4-16.34,5.72-23.17,5.72-3.68,0-6.64-.48-8.1-1.34l-3.38-2v182.4h0l3.38,2c1.46.87,4.42,1.35,8.1,1.35,6.83,0,16.16-1.67,23.17-5.71l87.3-50.42,0,0V117.43Z" style="fill:#e0e0e0"></path><path d="M221.05,237.91a43.81,43.81,0,0,1-13.5,4.77v3.23a43.81,43.81,0,0,0,13.5-4.77l78.2-45.25v-3.23Z" style="fill:#e0e0e0"></path><path d="M221.05,245.85a44.07,44.07,0,0,1-13.5,4.77v3.22a44.05,44.05,0,0,0,13.5-4.76l78.2-45.26V200.6Z" style="fill:#e0e0e0"></path><path d="M221.05,253.78a43.81,43.81,0,0,1-13.5,4.77v3.23a44.07,44.07,0,0,0,13.5-4.77l78.2-45.25v-3.23Z" style="fill:#e0e0e0"></path><path d="M221.05,261.72a44.05,44.05,0,0,1-13.5,4.76v3.23a43.81,43.81,0,0,0,13.5-4.77l78.2-45.25v-3.22Z" style="fill:#e0e0e0"></path><path d="M221.05,269.65a43.81,43.81,0,0,1-13.5,4.77v3.22a44.05,44.05,0,0,0,13.5-4.76l78.2-45.25V224.4Z" style="fill:#e0e0e0"></path><path d="M221.05,277.58a43.81,43.81,0,0,1-13.5,4.77v3.23a43.81,43.81,0,0,0,13.5-4.77l78.2-45.25v-3.23Z" style="fill:#e0e0e0"></path><path d="M221.05,285.52a43.79,43.79,0,0,1-13.5,4.76v3.23a44.05,44.05,0,0,0,13.5-4.76l78.2-45.26v-3.22Z" style="fill:#e0e0e0"></path><path d="M221.05,293.45a43.81,43.81,0,0,1-13.5,4.77v3.23a44.07,44.07,0,0,0,13.5-4.77l78.2-45.25V248.2Z" style="fill:#e0e0e0"></path><path d="M221.05,301.39a44.05,44.05,0,0,1-13.5,4.76v3.23a43.81,43.81,0,0,0,13.5-4.77l78.2-45.25v-3.22Z" style="fill:#e0e0e0"></path><path d="M221.05,309.32a43.81,43.81,0,0,1-13.5,4.77v3.22a44.05,44.05,0,0,0,13.5-4.76l78.2-45.25v-3.23Z" style="fill:#e0e0e0"></path><path d="M221.05,317.25a43.81,43.81,0,0,1-13.5,4.77v3.23a43.81,43.81,0,0,0,13.5-4.77l78.2-45.25V272Z" style="fill:#e0e0e0"></path><path d="M221.05,325.19a43.79,43.79,0,0,1-13.5,4.76v3.23a43.81,43.81,0,0,0,13.5-4.77l78.2-45.25v-3.22Z" style="fill:#e0e0e0"></path><path d="M296.58,110.6l-31.32,18.48,32.34-17.89Zm6.14,3.55L238.1,150.81l65.67-36Z" style="opacity:0.15"></path><path d="M202.88,173.31c-5.93.61-11,.15-13.1-1.07l-3.38-2v182.4h0l3.38,2c2.08,1.23,7.17,1.69,13.1,1.08Z" style="opacity:0.03"></path><path d="M248,211.11l.72-.6c.44-.37.46-.56.46-1.31v-9.49c0-.75,0-.88-.47-.74l-.71.23v-1.11l4.07-2.35v1.11l-.79.66c-.37.31-.41.55-.41,1.24v9.55c0,.67,0,.83.42.71l.78-.24v1.11L248,212.22Z" style="fill:#455a64"></path><path d="M252.94,208.24l.47-.42a2.93,2.93,0,0,0,.89-1.42l2.3-5.93-2.47-3.77c-.3-.43-.46-.46-.83-.39l-.42.08.15-1.21,3.72-2.15v1.13l-.68.57a.51.51,0,0,0-.06.77l1.6,2.49,1.53-4.2c.21-.56.25-.81-.12-.74l-.61.09.13-1.14,3.26-1.89v1.13l-.52.47a2.61,2.61,0,0,0-.84,1.31l-2.15,5.77,2.53,3.87a.66.66,0,0,0,.9.34l.46-.14V204l-4.06,2.35v-1.13l.65-.54a.57.57,0,0,0,.09-.89l-1.61-2.44-1.68,4.45c-.18.45-.23.74.11.66l.68-.17v1.07l-3.42,2Z" style="fill:#455a64"></path><path d="M249,322.55l1.29-.75v.64l-1.29.74Z" style="fill:#455a64"></path><path d="M251.56,323l.35-.29a.33.33,0,0,0,.12-.31v-2.33c0-.2,0-.31-.16-.23l-.37.21,0-.43.94-.73.12,0V322c0,.22,0,.24.12.2l.33-.11v.38l-1.48.86Z" style="fill:#455a64"></path><path d="M253.32,323.13a2.9,2.9,0,0,0,1.36-2.21c0-.47-.17-.65-.39-.63a4.29,4.29,0,0,1-.46.49l-.05-.44a2.19,2.19,0,0,0,.79-1.58c0-.38-.16-.54-.45-.37a1,1,0,0,0-.43.5.46.46,0,0,1,.13.29.76.76,0,0,1-.3.58c-.23.13-.31,0-.31-.29a2.14,2.14,0,0,1,1-1.63c.55-.32.92-.16.92.52a2.47,2.47,0,0,1-.54,1.44v0c.37-.06.69,0,.69.73a3.79,3.79,0,0,1-1.93,3Z" style="fill:#455a64"></path><path d="M255.71,319.06a3.15,3.15,0,0,1,1.25-2.79c.64-.38,1.25-.27,1.25,1.22a3.17,3.17,0,0,1-1.27,2.87C256.14,320.82,255.71,320.32,255.71,319.06Zm1.89-1.18c0-1.14-.26-1.34-.63-1.13s-.66.93-.66,1.92.24,1.43.64,1.2S257.6,319,257.6,317.88Z" style="fill:#455a64"></path><path d="M259.4,316.55l1.29-.74v.63l-1.29.74Z" style="fill:#455a64"></path><path d="M189.7,172.18l0,9.93v13.07c3.8-5.13,5.22-9.49,5.22-13.07A11.69,11.69,0,0,0,189.7,172.18Z" style="fill:#f0f0f0"></path><path d="M189.7,172.18l0,9.93v13.07c3.8-5.13,5.22-9.49,5.22-13.07A11.69,11.69,0,0,0,189.7,172.18Z" style="fill:#e0e0e0"></path><path d="M189.54,172.09c4.18,2.46,3.25,12.13-7.52,18.4l-87,50.6L79.36,232l107-61.8Z" style="fill:#e0e0e0"></path><polygon points="79.36 232.04 95.03 241.09 95.03 423.49 79.36 414.44 79.36 232.04" style="fill:#e0e0e0"></polygon><polygon points="79.36 232.04 95.03 241.09 95.03 423.49 79.36 414.44 79.36 232.04" style="opacity:0.15"></polygon><path d="M182,190.48l-3.89,2.27L95,241.09v182.4l87-50.61c7.9-4.59,9.8-8.6,9.83-12.18h0V176.17Q191.76,184.65,182,190.48Z" style="fill:#f0f0f0"></path><g style="opacity:0.1"><polygon points="103.79 253.2 178.13 210.25 182.03 207.98 182.03 204.68 178.13 206.95 103.79 249.9 103.79 253.2"></polygon><polygon points="103.79 261.13 178.13 218.18 182.03 215.91 182.03 212.61 178.13 214.88 103.79 257.82 103.79 261.13"></polygon><polygon points="103.79 269.06 178.13 226.11 182.03 223.84 182.03 220.54 178.13 222.81 103.79 265.75 103.79 269.06"></polygon><polygon points="103.79 276.99 178.13 234.04 182.03 231.77 182.03 228.47 178.13 230.74 103.79 273.68 103.79 276.99"></polygon><polygon points="103.79 284.92 178.13 241.97 182.03 239.7 182.03 236.4 178.13 238.66 103.79 281.61 103.79 284.92"></polygon><polygon points="103.79 292.85 178.13 249.9 182.03 247.63 182.03 244.32 178.13 246.59 103.79 289.54 103.79 292.85"></polygon><polygon points="103.79 300.77 178.13 257.83 182.03 255.56 182.03 252.25 178.13 254.52 103.79 297.47 103.79 300.77"></polygon><polygon points="103.79 308.7 178.13 265.76 182.03 263.49 182.03 260.18 178.13 262.45 103.79 305.4 103.79 308.7"></polygon><polygon points="103.79 316.63 178.13 273.69 182.03 271.42 182.03 268.11 178.13 270.38 103.79 313.33 103.79 316.63"></polygon><polygon points="103.79 324.56 178.13 281.62 182.03 279.35 182.03 276.04 178.13 278.31 103.79 321.26 103.79 324.56"></polygon><polygon points="103.79 332.49 178.13 289.55 182.03 287.27 182.03 283.97 178.13 286.24 103.79 329.19 103.79 332.49"></polygon><polygon points="103.79 340.42 178.13 297.48 182.03 295.2 182.03 291.9 178.13 294.17 103.79 337.12 103.79 340.42"></polygon><polygon points="103.79 348.35 178.13 305.4 182.03 303.13 182.03 299.83 178.13 302.1 103.79 345.05 103.79 348.35"></polygon><polygon points="103.79 356.28 178.13 313.33 182.03 311.06 182.03 307.76 178.13 310.03 103.79 352.98 103.79 356.28"></polygon><polygon points="103.79 364.21 178.13 321.26 182.03 318.99 182.03 315.69 178.13 317.96 103.79 360.91 103.79 364.21"></polygon><polygon points="103.79 372.14 178.13 329.19 182.03 326.92 182.03 323.62 178.13 325.89 103.79 368.83 103.79 372.14"></polygon><polygon points="103.79 380.07 178.13 337.12 182.03 334.85 182.03 331.55 178.13 333.82 103.79 376.76 103.79 380.07"></polygon><polygon points="103.79 388 178.13 345.05 182.03 342.78 182.03 339.48 178.13 341.75 103.79 384.69 103.79 388"></polygon><polygon points="103.79 395.93 178.13 352.98 182.03 350.71 182.03 347.41 178.13 349.68 103.79 392.62 103.79 395.93"></polygon></g><path d="M90.8,238.63l31.32-18.48L89.78,238Zm-6.14-3.54,64.62-36.66-65.67,36Z" style="opacity:0.15"></path><path d="M89.78,238v49.62l1-49Zm-5.65,30.54.53-33.49-1-.62Z" style="opacity:0.15"></path><path d="M177.05,174.16a.78.78,0,0,1-.43-.62h0v2.35L180,174A3.25,3.25,0,0,1,177.05,174.16Zm15-7.19.09-.05-7.27,4.19Zm.09-.05.71-.42v-.58A1.3,1.3,0,0,1,192.16,166.92Z" style="fill:#263238"></path><path d="M192.07,167,180,174a3.26,3.26,0,0,1-2.92.21c-.71-.41-.54-1.17.36-1.69l12.11-7a3.29,3.29,0,0,1,2.92-.21C193.14,165.68,193,166.44,192.07,167Z" style="fill:#455a64"></path><path d="M121,244.87c2.17-1.28,18.24-10.82,34.13-21.29s26.63-18.6,31.48-23.86a48.52,48.52,0,0,0,3.52-4.25,29.43,29.43,0,0,0,4.32-7.82V363l0,.44c0,5.09-2.8,10.83-8.2,17.06-12.64,14.58-58.83,41.88-65.3,45.66Z" style="fill:#f5f5f5"></path><path d="M194,190.18V362.4h0v1c0,5-2.76,10.6-8.08,16.73-12.18,14.05-55.75,40-64.42,45.12l.08-180.09c2.94-1.74,18.51-11,33.9-21.16,16.07-10.59,26.7-18.64,31.58-23.93a51.45,51.45,0,0,0,3.56-4.29,33.43,33.43,0,0,0,3.41-5.59m1-8.07c0,3.58-1.42,7.94-5.22,13.07a48.07,48.07,0,0,1-3.49,4.2c-5.66,6.14-18.53,15.31-31.39,23.78-17.18,11.33-34.35,21.42-34.35,21.42L120.42,427s52.43-30.36,66.18-46.21c6.45-7.44,8.29-13.23,8.32-17.38h0V182.11Z" style="fill:#e0e0e0"></path><path d="M195,200.22c0,3.32-1.32,7.37-4.84,12.12a45.12,45.12,0,0,1-3.23,3.89c-3.5,3.79-10,8.83-17.4,14.08-3.74,2.65-7.72,5.35-11.71,8-9.59,6.32-19.17,12.22-25.29,15.93v-3.36c6.12-3.7,15.7-9.61,25.29-15.93,4-2.63,8-5.33,11.71-8,7.44-5.26,13.9-10.29,17.4-14.08a46.75,46.75,0,0,0,3.23-3.9c3.52-4.75,4.84-8.8,4.84-12.12Z" style="fill:#e0e0e0"></path><path d="M195,207.78c0,3.32-1.32,7.37-4.84,12.12a45.12,45.12,0,0,1-3.23,3.89c-3.5,3.79-10,8.83-17.4,14.08-3.74,2.65-7.72,5.35-11.71,8-9.59,6.32-19.17,12.22-25.29,15.93v-3.36c6.12-3.7,15.7-9.61,25.29-15.93,4-2.63,8-5.33,11.71-8,7.44-5.26,13.9-10.29,17.4-14.08a46.75,46.75,0,0,0,3.23-3.9c3.52-4.75,4.84-8.8,4.84-12.12Z" style="fill:#e0e0e0"></path><path d="M195,215.34c0,3.32-1.32,7.37-4.84,12.12a45.12,45.12,0,0,1-3.23,3.89c-3.5,3.79-10,8.83-17.4,14.08-3.74,2.65-7.72,5.35-11.71,8-9.59,6.32-19.17,12.22-25.29,15.93V266c6.12-3.7,15.7-9.61,25.29-15.93,4-2.63,8-5.33,11.71-8,7.44-5.26,13.9-10.29,17.4-14.08a46.75,46.75,0,0,0,3.23-3.9c3.52-4.75,4.84-8.8,4.84-12.12Z" style="fill:#e0e0e0"></path><path d="M195,222.9c0,3.32-1.32,7.37-4.84,12.12a45.12,45.12,0,0,1-3.23,3.89c-3.5,3.79-10,8.83-17.4,14.08-3.74,2.65-7.72,5.35-11.71,8-9.59,6.32-19.17,12.22-25.29,15.93v-3.36c6.12-3.7,15.7-9.61,25.29-15.93,4-2.63,8-5.33,11.71-8,7.44-5.26,13.9-10.29,17.4-14.08a46.75,46.75,0,0,0,3.23-3.9c3.52-4.75,4.84-8.8,4.84-12.12Z" style="fill:#e0e0e0"></path><path d="M195,230.46c0,3.32-1.32,7.37-4.84,12.12a45.12,45.12,0,0,1-3.23,3.89c-3.5,3.79-10,8.83-17.4,14.08-3.74,2.65-7.72,5.35-11.71,8-9.59,6.32-19.17,12.23-25.29,15.93V281.1c6.12-3.7,15.7-9.61,25.29-15.93,4-2.63,8-5.33,11.71-8,7.44-5.26,13.9-10.29,17.4-14.08a48.38,48.38,0,0,0,3.23-3.89c3.52-4.76,4.84-8.81,4.84-12.13Z" style="fill:#e0e0e0"></path><path d="M195,238c0,3.32-1.32,7.37-4.84,12.12a45.12,45.12,0,0,1-3.23,3.89c-3.5,3.79-10,8.83-17.4,14.08-3.74,2.65-7.72,5.35-11.71,8-9.59,6.32-19.17,12.23-25.29,15.93v-3.36c6.12-3.7,15.7-9.6,25.29-15.93,4-2.63,8-5.33,11.71-8,7.44-5.26,13.9-10.29,17.4-14.08a48.38,48.38,0,0,0,3.23-3.89C193.63,242,195,238,195,234.66Z" style="fill:#e0e0e0"></path><path d="M195,245.58c0,3.32-1.32,7.37-4.84,12.12a45.12,45.12,0,0,1-3.23,3.89c-3.5,3.79-10,8.83-17.4,14.09-3.74,2.64-7.72,5.34-11.71,8-9.59,6.32-19.17,12.23-25.29,15.93v-3.36c6.12-3.7,15.7-9.6,25.29-15.93,4-2.63,8-5.33,11.71-8,7.44-5.26,13.9-10.29,17.4-14.08a48.38,48.38,0,0,0,3.23-3.89c3.52-4.76,4.84-8.81,4.84-12.13Z" style="fill:#e0e0e0"></path><path d="M195,253.14c0,3.32-1.32,7.37-4.84,12.12a45.12,45.12,0,0,1-3.23,3.89c-3.5,3.79-10,8.83-17.4,14.09-3.74,2.64-7.72,5.34-11.71,8-9.59,6.32-19.17,12.23-25.29,15.93v-3.36c6.12-3.7,15.7-9.6,25.29-15.93,4-2.63,8-5.33,11.71-8,7.44-5.26,13.9-10.29,17.4-14.08a48.38,48.38,0,0,0,3.23-3.89c3.52-4.76,4.84-8.81,4.84-12.13Z" style="fill:#e0e0e0"></path><path d="M190.11,269.47a48.38,48.38,0,0,1-3.23,3.89c-5.26,5.7-17.19,14.2-29.11,22.05-9.59,6.33-19.17,12.23-25.29,15.93v3.36c6.12-3.7,15.7-9.61,25.29-15.93,11.92-7.86,23.85-16.36,29.11-22.06a45.12,45.12,0,0,0,3.23-3.89c3.52-4.75,4.84-8.8,4.84-12.12v-3.36C195,260.66,193.63,264.71,190.11,269.47Z" style="fill:#e0e0e0"></path><path d="M190.11,277a48.38,48.38,0,0,1-3.23,3.89c-5.26,5.7-17.19,14.2-29.11,22.05-9.59,6.33-19.17,12.23-25.29,15.93v3.36c6.12-3.7,15.7-9.61,25.29-15.93,11.92-7.86,23.85-16.36,29.11-22.05a46.75,46.75,0,0,0,3.23-3.9c3.52-4.75,4.84-8.8,4.84-12.12V264.9C195,268.22,193.63,272.27,190.11,277Z" style="fill:#e0e0e0"></path><path d="M190.11,284.59a48.38,48.38,0,0,1-3.23,3.89c-5.26,5.7-17.19,14.2-29.11,22-9.59,6.33-19.17,12.23-25.29,15.93v3.36c6.12-3.7,15.7-9.61,25.29-15.93,11.92-7.86,23.85-16.36,29.11-22.05a46.75,46.75,0,0,0,3.23-3.9c3.52-4.75,4.84-8.8,4.84-12.12v-3.36C195,275.78,193.63,279.84,190.11,284.59Z" style="fill:#e0e0e0"></path><path d="M141.4,414.26c16.21-10.2,37.22-24.28,45.2-33.48,6.45-7.44,8.29-13.23,8.32-17.38h0V182.11c0,3.58-1.42,7.94-5.22,13.07,0,0,1.91,102.51-7.75,147.49S141.4,414.26,141.4,414.26Z" style="opacity:0.07"></path><polygon points="281.52 116.5 266.55 125.14 282.69 134.46 282.69 169.12 291.1 155.56 297.66 160.53 297.66 125.81 281.52 116.5" style="opacity:0.2"></polygon><polygon points="283.36 115.4 299.5 124.71 299.5 162.37 292.94 157.41 284.53 170.96 284.53 133.36 268.39 124.04 283.36 115.4" style="fill:#0096FF"></polygon><polygon points="283.36 115.4 268.39 124.04 284.53 133.36 299.5 124.71 283.36 115.4" style="fill:#fff;opacity:0.25"></polygon></g></g><g id="freepik--speech-bubble--inject-6"><g id="freepik--speech-bubble--inject-6"><g id="freepik--speech-bubble--inject-6"><path d="M401,171.14l2.71-5.09-2.18-6.28v-3.85l6.67,3.85v3.85l-2.87,5a.44.44,0,0,1-.19.17h0Z" style="fill:#0096FF"></path><path d="M401,171.14l2.71-5.09-2.18-6.28v-3.85l6.67,3.85v3.85l-2.87,5a.44.44,0,0,1-.19.17h0Z" style="opacity:0.2"></path><path d="M385.07,125.34a4.44,4.44,0,0,1,2-3.46l1.63-.94a4.39,4.39,0,0,1,4,0l24.95,14.43a4.41,4.41,0,0,1,2,3.46v27.44a4.4,4.4,0,0,1-2,3.46l-1.63.94a4.41,4.41,0,0,1-4,0L404,166l-2.86,5a.42.42,0,0,1-.77-.07l-3-8.72-10.27-5.95a4.44,4.44,0,0,1-2-3.46Z" style="fill:#0096FF"></path><path d="M419.63,166.27a4.4,4.4,0,0,1-2,3.46l-1.63.94a4.42,4.42,0,0,1-3.65.16c.94.36,1.65-.17,1.65-1.31V142.07a4.06,4.06,0,0,0-.58-2l5.62-3.25a4.1,4.1,0,0,1,.58,2Z" style="opacity:0.2"></path><path d="M385.14,124.77c.23-.85,1-1.12,1.93-.58L412,138.62a3.81,3.81,0,0,1,1.4,1.49l5.62-3.25a4,4,0,0,0-1.4-1.49L392.7,120.94a4.47,4.47,0,0,0-4,0l-1.63.94A4.41,4.41,0,0,0,385.14,124.77Z" style="fill:#fff;opacity:0.30000000000000004"></path></g><path d="M408,148.88a12.62,12.62,0,0,0-1.05-4.94h0v0a8.65,8.65,0,0,0-3.15-4c-2.15-1.27-3.95,1.31-4.23,4.34-.26-3.35-2-8-4.18-9.28a2.35,2.35,0,0,0-3.17.31v0h0a5.63,5.63,0,0,0-1.09,3.69c0,5.14,3.07,9.8,5.66,14.7l2.79,4.73,2.69-1.51C404.81,155,407.93,154,408,148.88Z" style="fill:#fafafa"></path></g></g></svg>